<svg width="16" height="20" viewBox="0 0 16 20" fill="none" xmlns="http://www.w3.org/2000/svg">
<path d="M11.8 1.25C12.0917 1.25 12.3715 1.3817 12.5778 1.61612C12.7841 1.85054 12.9 2.16848 12.9 2.5V17.5C12.9 17.8315 12.7841 18.1495 12.5778 18.3839C12.3715 18.6183 12.0917 18.75 11.8 18.75H5.2C4.90826 18.75 4.62847 18.6183 4.42218 18.3839C4.21589 18.1495 4.1 17.8315 4.1 17.5V2.5C4.1 2.16848 4.21589 1.85054 4.42218 1.61612C4.62847 1.3817 4.90826 1.25 5.2 1.25H11.8ZM5.2 0C4.61652 0 4.05694 0.263392 3.64437 0.732233C3.23178 1.20107 3 1.83696 3 2.5V17.5C3 18.163 3.23178 18.7989 3.64437 19.2678C4.05694 19.7366 4.61652 20 5.2 20H11.8C12.3835 20 12.9431 19.7366 13.3556 19.2678C13.7682 18.7989 14 18.163 14 17.5V2.5C14 1.83696 13.7682 1.20107 13.3556 0.732233C12.9431 0.263392 12.3835 0 11.8 0L5.2 0Z" fill="#ECECEF"/>
<path d="M8.5 18C8.89782 18 9.27936 17.842 9.56066 17.5607C9.84196 17.2794 10 16.8978 10 16.5C10 16.1022 9.84196 15.7206 9.56066 15.4393C9.27936 15.158 8.89782 15 8.5 15C8.10218 15 7.72064 15.158 7.43934 15.4393C7.15804 15.7206 7 16.1022 7 16.5C7 16.8978 7.15804 17.2794 7.43934 17.5607C7.72064 17.842 8.10218 18 8.5 18Z" fill="#ECECEF"/>
<path d="M5 9C5.04773 8.43512 5.22145 7.91512 5.52118 7.43999C5.82091 6.96486 6.21991 6.5874 6.71818 6.3076L6.12955 5.29399C6.09773 5.24647 6.08977 5.19632 6.10568 5.14353C6.12159 5.09074 6.15606 5.05114 6.20909 5.02475C6.25152 4.99835 6.29924 4.99307 6.35227 5.00891C6.4053 5.02475 6.44773 5.05642 6.47955 5.10393L7.06818 6.11755C7.52424 5.92749 8.00152 5.83247 8.5 5.83247C8.99848 5.83247 9.47576 5.92749 9.93182 6.11755L10.5205 5.10393C10.5523 5.05642 10.5947 5.02475 10.6477 5.00891C10.7008 4.99307 10.7485 4.99835 10.7909 5.02475C10.8439 5.05114 10.8784 5.09074 10.8943 5.14353C10.9102 5.19632 10.9023 5.24647 10.8705 5.29399L10.2818 6.3076C10.7803 6.5874 11.1793 6.96486 11.4788 7.43999C11.7783 7.91512 11.9521 8.43512 12 9H5ZM6.90909 8.12893C7.02045 8.12893 7.11464 8.0906 7.19164 8.01395C7.26864 7.93729 7.30703 7.84364 7.30682 7.73299C7.30682 7.62212 7.26832 7.52836 7.19132 7.45171C7.11432 7.37506 7.02024 7.33683 6.90909 7.33705C6.79773 7.33705 6.70355 7.37537 6.62655 7.45203C6.54955 7.52868 6.51115 7.62233 6.51136 7.73299C6.51136 7.84385 6.54986 7.93761 6.62686 8.01426C6.70386 8.09092 6.79794 8.12914 6.90909 8.12893ZM10.0909 8.12893C10.2023 8.12893 10.2965 8.0906 10.3735 8.01395C10.4505 7.93729 10.4888 7.84364 10.4886 7.73299C10.4886 7.62212 10.4501 7.52836 10.3731 7.45171C10.2961 7.37506 10.2021 7.33683 10.0909 7.33705C9.97955 7.33705 9.88536 7.37537 9.80836 7.45203C9.73136 7.52868 9.69297 7.62233 9.69318 7.73299C9.69318 7.84385 9.73168 7.93761 9.80868 8.01426C9.88568 8.09092 9.97976 8.12914 10.0909 8.12893Z" fill="#02CF2F"/>
</svg>
