<svg xmlns="http://www.w3.org/2000/svg" width="1em" height="1em" viewBox="0 0 24 24"><path fill="none" stroke="currentColor" stroke-linecap="round" stroke-linejoin="round" stroke-width="1.5" d="m3.002 5.127l.011 5.715a1.152 1.152 0 0 0 1.155 1.15l15.68-.03a1.152 1.152 0 0 0 1.15-1.155l-.011-5.714a1.152 1.152 0 0 0-1.154-1.15l-15.68.03a1.152 1.152 0 0 0-1.15 1.154m14.548 2.835h-3.018m-10.37 4.032c-.636 0-1.152.516-1.152 1.152v5.761c0 .636.516 1.152 1.152 1.152h15.68c.637 0 1.153-.516 1.153-1.152v-5.76c0-.637-.516-1.153-1.152-1.153m-2.293 4.033h-3.018"/></svg>