<svg width="16" height="20" viewBox="0 0 16 20" fill="none" xmlns="http://www.w3.org/2000/svg">
<path d="M11.8 1.25C12.0917 1.25 12.3715 1.3817 12.5778 1.61612C12.7841 1.85054 12.9 2.16848 12.9 2.5V17.5C12.9 17.8315 12.7841 18.1495 12.5778 18.3839C12.3715 18.6183 12.0917 18.75 11.8 18.75H5.2C4.90826 18.75 4.62847 18.6183 4.42218 18.3839C4.21589 18.1495 4.1 17.8315 4.1 17.5V2.5C4.1 2.16848 4.21589 1.85054 4.42218 1.61612C4.62847 1.3817 4.90826 1.25 5.2 1.25H11.8ZM5.2 0C4.61652 0 4.05694 0.263392 3.64437 0.732233C3.23178 1.20107 3 1.83696 3 2.5V17.5C3 18.163 3.23178 18.7989 3.64437 19.2678C4.05694 19.7366 4.61652 20 5.2 20H11.8C12.3835 20 12.9431 19.7366 13.3556 19.2678C13.7682 18.7989 14 18.163 14 17.5V2.5C14 1.83696 13.7682 1.20107 13.3556 0.732233C12.9431 0.263392 12.3835 0 11.8 0L5.2 0Z" fill="#ECECEF"/>
<path d="M8.5 18C8.89782 18 9.27936 17.842 9.56066 17.5607C9.84196 17.2794 10 16.8978 10 16.5C10 16.1022 9.84196 15.7206 9.56066 15.4393C9.27936 15.158 8.89782 15 8.5 15C8.10218 15 7.72064 15.158 7.43934 15.4393C7.15804 15.7206 7 16.1022 7 16.5C7 16.8978 7.15804 17.2794 7.43934 17.5607C7.72064 17.842 8.10218 18 8.5 18Z" fill="#ECECEF"/>
<path d="M10.166 9.75927C9.84289 10.0759 9.49015 10.0259 9.1506 9.87592C8.79127 9.72261 8.46161 9.71594 8.0825 9.87592C7.60778 10.0826 7.35724 10.0226 7.07373 9.75927C5.46499 8.08282 5.70234 5.52981 7.52867 5.43649C7.97371 5.45982 8.28359 5.68312 8.54402 5.70312C8.93302 5.62313 9.30554 5.39316 9.72091 5.42315C10.2187 5.46315 10.5945 5.66312 10.8418 6.02308C9.81322 6.64633 10.0572 8.01616 11 8.39945C10.8121 8.89938 10.5681 9.39599 10.1627 9.76261L10.166 9.75927ZM8.51106 5.41649C8.46161 4.67325 9.05829 4.05999 9.74399 4C9.83959 4.85989 8.97258 5.49981 8.51106 5.41649Z" fill="#ECECEF"/>
</svg>
