<svg width="26" height="26" viewBox="0 0 26 26" fill="none"
  xmlns="http://www.w3.org/2000/svg">
  <path d="M21.45 24.4833L18.5791 21.6667H7.04165C5.38054 21.6667 3.9722 21.0889 2.81665 19.9333C1.66109 18.7778 1.08331 17.3694 1.08331 15.7083C1.08331 14.3217 1.51304 13.0867 2.37248 12.0033C3.23192 10.9128 4.33692 10.2158 5.68748 9.91249C5.74526 9.76805 5.79942 9.62721 5.84998 9.48999C5.9222 9.35277 5.97637 9.20471 6.01248 9.04582L1.51665 4.54999L3.03331 3.03333L22.9666 22.9667M7.04165 19.5H16.4125L7.69165 10.7792C7.65554 10.9814 7.63026 11.18 7.61581 11.375C7.59415 11.5411 7.58331 11.7217 7.58331 11.9167H7.04165C5.99442 11.9167 5.10248 12.2886 4.36581 13.0325C3.62192 13.7692 3.24998 14.6611 3.24998 15.7083C3.24998 16.7555 3.62192 17.6583 4.36581 18.4167C5.10248 19.1389 5.99442 19.5 7.04165 19.5ZM23.4 20.3125L21.8291 18.7958C22.1397 18.543 22.3708 18.2505 22.5225 17.9183C22.6741 17.5861 22.75 17.2105 22.75 16.7917C22.75 16.0333 22.4864 15.3942 21.9591 14.8742C21.4391 14.3469 20.8 14.0833 20.0416 14.0833H18.4166V11.9167C18.4166 10.4217 17.8894 9.14332 16.835 8.08166C15.7805 7.02721 14.5022 6.49999 13 6.49999C12.5161 6.49999 12.0466 6.55777 11.5916 6.67332C11.1366 6.7961 10.7033 6.98388 10.2916 7.23666L8.72081 5.66583C9.35637 5.23249 10.028 4.90027 10.7358 4.66916C11.4508 4.44527 12.2055 4.33333 13 4.33333C15.1161 4.33333 16.9072 5.06999 18.3733 6.54332C19.8466 8.00944 20.5833 9.80055 20.5833 11.9167C21.8328 12.0611 22.8655 12.6028 23.6816 13.5417C24.505 14.4661 24.9166 15.5494 24.9166 16.7917C24.9166 17.5139 24.783 18.1675 24.5158 18.7525C24.2414 19.3592 23.8694 19.8792 23.4 20.3125Z" fill="white"/>
</svg>
