<svg width="22" height="22" viewBox="0 0 22 22" fill="none" xmlns="http://www.w3.org/2000/svg">
<path d="M19.7364 18.7636L15.4335 14.4616C16.6806 12.9643 17.3025 11.0438 17.1698 9.09971C17.037 7.15558 16.1599 5.33747 14.7208 4.02358C13.2817 2.7097 11.3915 2.0012 9.44337 2.04547C7.49522 2.08975 5.63914 2.88339 4.26123 4.26129C2.88333 5.6392 2.08969 7.49528 2.04541 9.44343C2.00114 11.3916 2.70964 13.2818 4.02352 14.7209C5.33741 16.16 7.15552 17.0371 9.09965 17.1698C11.0438 17.3026 12.9642 16.6807 14.4615 15.4335L18.7635 19.7364C18.8274 19.8003 18.9033 19.851 18.9867 19.8855C19.0702 19.9201 19.1596 19.9379 19.25 19.9379C19.3403 19.9379 19.4297 19.9201 19.5132 19.8855C19.5967 19.851 19.6725 19.8003 19.7364 19.7364C19.8002 19.6725 19.8509 19.5967 19.8855 19.5133C19.92 19.4298 19.9378 19.3403 19.9378 19.25C19.9378 19.1597 19.92 19.0702 19.8855 18.9868C19.8509 18.9033 19.8002 18.8275 19.7364 18.7636ZM3.43745 9.62501C3.43745 8.40124 3.80034 7.20495 4.48023 6.18742C5.16013 5.16989 6.12648 4.37683 7.2571 3.90851C8.38772 3.44019 9.63182 3.31766 10.8321 3.5564C12.0323 3.79515 13.1348 4.38445 14.0002 5.24979C14.8655 6.11513 15.4548 7.21763 15.6936 8.41789C15.9323 9.61815 15.8098 10.8622 15.3415 11.9929C14.8731 13.1235 14.0801 14.0898 13.0625 14.7697C12.045 15.4496 10.8487 15.8125 9.62495 15.8125C7.98448 15.8107 6.41173 15.1582 5.25174 13.9982C4.09175 12.8382 3.43927 11.2655 3.43745 9.62501Z" fill="white"/>
</svg>
