<svg width="24" height="24" viewBox="0 0 24 24" fill="none" xmlns="http://www.w3.org/2000/svg">
<path d="M20.1398 13.3523L20.1445 13.3547C20.2172 12.9117 20.2523 12.4594 20.2523 12.0117C20.2523 11.6109 20.2218 11.2078 20.1656 10.8141C20.2218 11.2055 20.25 11.6016 20.25 11.9977C20.25 12.4523 20.2125 12.907 20.1398 13.3523ZM2.32029 9.33047C2.30857 9.32109 2.29919 9.31172 2.28748 9.3C2.30388 9.31641 2.32029 9.33281 2.33904 9.34922L3.87419 10.6594V10.657L2.32029 9.33047ZM14.8968 4.26797H14.8992L14.5359 2.30391C14.5312 2.28047 14.5265 2.25938 14.5195 2.23828C14.5219 2.25 14.5265 2.26406 14.5289 2.27578L14.8968 4.26797ZM16.1625 17.0766L16.8984 16.4719L19.0734 17.243C19.4718 16.7063 19.807 16.1297 20.0718 15.518L18.3211 14.0203L18.4758 13.0805C18.5343 12.7266 18.5648 12.3633 18.5648 12C18.5648 11.6367 18.5343 11.2734 18.4758 10.9195L18.3234 9.98438L20.0742 8.48672C19.807 7.87734 19.4742 7.29844 19.0758 6.76172L16.9008 7.53281L16.1648 6.92813C15.6047 6.46875 14.9789 6.10781 14.3062 5.85469L13.4133 5.51953L12.9937 3.24609C12.3318 3.17109 11.6635 3.17109 11.0015 3.24609L10.582 5.52422L9.69373 5.85938C9.02576 6.1125 8.40466 6.47344 7.84919 6.93047L7.11326 7.5375L4.92419 6.75938C4.52576 7.29609 4.1906 7.87266 3.92576 8.48438L5.69529 9.99609L5.54294 10.9336C5.48435 11.2828 5.45623 11.6414 5.45623 12C5.45623 12.3563 5.48669 12.7172 5.54294 13.0664L5.69529 14.0039L3.92576 15.5156C4.19294 16.125 4.52576 16.7039 4.92419 17.2406L7.11326 16.4625L7.84919 17.0695C8.40466 17.5266 9.02576 17.8875 9.69373 18.1406L10.5797 18.4805L10.9992 20.7586C11.6601 20.8336 12.3328 20.8336 12.9914 20.7586L13.4109 18.4852L14.3039 18.15C14.9789 17.8969 15.6023 17.5359 16.1625 17.0766ZM12.0117 15.8977C11.2968 15.8977 10.6242 15.7148 10.0359 15.3938C8.74919 14.6953 7.87498 13.3336 7.87498 11.7656C7.87498 9.4875 9.72185 7.64063 12 7.64063C13.5679 7.64063 14.9297 8.51484 15.6281 9.80156C15.9492 10.3875 16.132 11.0602 16.132 11.7773C16.132 14.0531 14.2875 15.8977 12.0117 15.8977ZM4.85623 19.05C4.72732 19.0945 4.59373 19.1039 4.46716 19.0781C4.60076 19.1063 4.74138 19.1016 4.87732 19.0547L6.78513 18.375C6.78279 18.3727 6.7781 18.3703 6.77576 18.368L4.85623 19.05ZM21.675 9.33047L20.1398 10.643C20.1398 10.6477 20.1422 10.6547 20.1422 10.6594L21.675 9.34922C21.8414 9.20625 21.9351 9 21.9375 8.78672C21.9304 8.99297 21.8367 9.19219 21.675 9.33047Z" fill="black" fill-opacity="0.15"/>
<path d="M21.9328 15.1547C21.9445 15.2648 21.9328 15.3774 21.8929 15.4852L21.8718 15.5461C21.4481 16.7268 20.8154 17.8216 20.0039 18.7781L19.9617 18.8274C19.8633 18.9436 19.732 19.0271 19.585 19.0669C19.4381 19.1067 19.2825 19.1008 19.139 19.05L17.2335 18.3727C16.5345 18.9486 15.7449 19.4047 14.8968 19.7227L14.5289 21.7149C14.5011 21.8648 14.4284 22.0027 14.3204 22.1102C14.2124 22.2178 14.0742 22.29 13.9242 22.3172L13.8609 22.3289C13.2483 22.4396 12.6271 22.4953 12.0046 22.4953H12.0117C12.6375 22.4953 13.2632 22.4391 13.8726 22.3289L13.9359 22.3172C14.0859 22.29 14.2241 22.2178 14.3321 22.1102C14.4401 22.0027 14.5128 21.8648 14.5406 21.7149L14.9085 19.725C15.757 19.4063 16.5398 18.9539 17.2429 18.3773L19.146 19.0547C19.2896 19.1055 19.4451 19.1113 19.5921 19.0716C19.739 19.0318 19.8704 18.9483 19.9687 18.832L20.0109 18.7828C20.8265 17.8195 21.4523 16.7344 21.8765 15.5555L21.8976 15.4945C21.9351 15.3844 21.9468 15.2672 21.9328 15.1547Z" fill="black" fill-opacity="0.15"/>
<path d="M16.125 11.7656C16.125 11.0555 15.9445 10.3852 15.6281 9.80156C14.9297 8.51484 13.568 7.64062 12 7.64062C9.72188 7.64062 7.875 9.4875 7.875 11.7656C7.875 13.3336 8.74922 14.6953 10.0359 15.3937C10.6195 15.7102 11.2875 15.8906 12 15.8906C14.2781 15.8906 16.125 14.0437 16.125 11.7656ZM9.375 11.7656C9.375 11.0648 9.64922 10.4062 10.1437 9.90937C10.6406 9.4125 11.2992 9.14062 12 9.14062C12.7008 9.14062 13.3594 9.4125 13.8563 9.90937C14.1004 10.1528 14.294 10.4422 14.426 10.7607C14.5579 11.0793 14.6255 11.4208 14.625 11.7656C14.625 12.4664 14.3508 13.125 13.8563 13.6219C13.6128 13.866 13.3234 14.0597 13.0049 14.1916C12.6863 14.3235 12.3448 14.3912 12 14.3906C11.2992 14.3906 10.6406 14.1164 10.1437 13.6219C9.89959 13.3784 9.70597 13.0891 9.57404 12.7705C9.44211 12.4519 9.37446 12.1104 9.375 11.7656Z" fill="black"/>
<path d="M13.9243 22.3172C14.0743 22.29 14.2125 22.2178 14.3205 22.1102C14.4285 22.0027 14.5012 21.8648 14.529 21.7149L14.8969 19.7227C15.745 19.4048 16.5346 18.9486 17.2336 18.3727L19.1391 19.05C19.2826 19.1008 19.4382 19.1067 19.5851 19.0669C19.7321 19.0271 19.8634 18.9436 19.9618 18.8274L20.004 18.7781C20.8196 17.8149 21.4477 16.7274 21.8719 15.5461L21.893 15.4852C21.9329 15.3774 21.9446 15.2649 21.9329 15.1547C21.9118 14.9695 21.8227 14.7938 21.6751 14.6649L20.1446 13.3547L20.1399 13.3524C20.2126 12.907 20.2501 12.4524 20.2501 11.9977C20.2501 11.6016 20.2219 11.2031 20.1657 10.8141C20.1586 10.7625 20.1493 10.7109 20.1422 10.6594C20.1422 10.6547 20.1399 10.6477 20.1399 10.643L21.6751 9.33048C21.8368 9.19219 21.9305 8.99298 21.9376 8.78673C21.9399 8.69298 21.9258 8.59688 21.893 8.50548L21.8719 8.44454C21.4493 7.26335 20.8165 6.16837 20.004 5.21251L19.9618 5.16329C19.8632 5.04739 19.7318 4.96408 19.585 4.92434C19.4381 4.88459 19.2827 4.89027 19.1391 4.94063L17.2336 5.61797C16.5305 5.04141 15.7477 4.58673 14.8993 4.26798H14.8969L14.529 2.27579C14.5266 2.26407 14.5243 2.25001 14.5196 2.23829C14.4857 2.09658 14.4115 1.96776 14.3058 1.86749C14.2001 1.76721 14.0676 1.6998 13.9243 1.67344L13.861 1.66172C12.6399 1.44141 11.3555 1.44141 10.1344 1.66172L10.0711 1.67344C9.92114 1.70062 9.78295 1.7728 9.67494 1.88039C9.56694 1.98798 9.49422 2.12589 9.46646 2.27579L9.09615 4.27735C8.25448 4.59617 7.47068 5.05061 6.77584 5.62266L4.8563 4.94063C4.71279 4.88987 4.55722 4.88398 4.41028 4.92376C4.26333 4.96353 4.13197 5.04707 4.03365 5.16329L3.99146 5.21251C3.17993 6.16905 2.54718 7.26384 2.12349 8.44454L2.1024 8.50548C2.05356 8.64169 2.04505 8.7891 2.07789 8.93003C2.11073 9.07095 2.18353 9.19942 2.28755 9.30001C2.29927 9.30938 2.30865 9.3211 2.32037 9.33048L3.87427 10.657V10.6594C3.80162 11.1 3.76646 11.5477 3.76646 11.9953C3.76646 12.4453 3.80162 12.8953 3.87427 13.3336L2.32037 14.6602C2.20457 14.7593 2.1217 14.8913 2.08277 15.0387C2.04383 15.1861 2.05068 15.3418 2.1024 15.4852L2.12349 15.5461C2.54771 16.7274 3.17584 17.8172 3.99146 18.7781L4.03365 18.8274C4.14849 18.9609 4.30084 19.0477 4.46724 19.0781C4.5938 19.1016 4.7274 19.0945 4.8563 19.05L6.77584 18.368C6.77818 18.3703 6.78287 18.3727 6.78521 18.375C7.4813 18.9445 8.25709 19.3969 9.09615 19.7133L9.46646 21.7149C9.49422 21.8648 9.56694 22.0027 9.67494 22.1102C9.78295 22.2178 9.92114 22.29 10.0711 22.3172L10.1344 22.3289C10.7461 22.4391 11.3719 22.4953 11.9977 22.4953H12.0047C12.6282 22.4953 13.254 22.4391 13.861 22.3289L13.9243 22.3172ZM12.9915 20.7586C12.3295 20.8336 11.6612 20.8336 10.9993 20.7586L10.5797 18.4805L9.6938 18.1406C9.02584 17.8875 8.40474 17.5266 7.84927 17.0695L7.11334 16.4625L4.92427 17.2406C4.52584 16.7039 4.19302 16.125 3.92584 15.5156L5.69537 14.0039L5.54302 13.0664C5.48677 12.7172 5.4563 12.3563 5.4563 12C5.4563 11.6414 5.48443 11.2828 5.54302 10.9336L5.69537 9.9961L3.92584 8.48438C4.19068 7.87266 4.52584 7.2961 4.92427 6.75938L7.11334 7.53751L7.84927 6.93048C8.40474 6.47344 9.02584 6.11251 9.6938 5.85938L10.5821 5.52422L11.0016 3.2461C11.6602 3.1711 12.3329 3.1711 12.9938 3.2461L13.4133 5.51954L14.3063 5.85469C14.979 6.10782 15.6047 6.46876 16.1649 6.92813L16.9008 7.53282L19.0758 6.76172C19.4743 7.29844 19.8071 7.87735 20.0743 8.48673L18.3235 9.98438L18.4758 10.9195C18.5344 11.2734 18.5649 11.6367 18.5649 12C18.5649 12.3633 18.5344 12.7266 18.4758 13.0805L18.3211 14.0203L20.0719 15.518C19.8065 16.1294 19.4715 16.7083 19.0735 17.243L16.8985 16.4719L16.1626 17.0766C15.6024 17.5359 14.979 17.8969 14.304 18.15L13.411 18.4852L12.9915 20.7586Z" fill="black"/>
</svg>
