<svg xmlns="http://www.w3.org/2000/svg" width="24" height="24" viewBox="0 0 24 24" fill="none">
  <path d="M1 21L12 2L23 21H1ZM4.45 19H19.55L12 6L4.45 19ZM12 18C12.2833 18 12.521 17.904 12.713 17.712C12.905 17.52 13.0007 17.2827 13 17C13 16.7167 12.904 16.4793 12.712 16.288C12.52 16.0967 12.2827 16.0007 12 16C11.7167 16 11.4793 16.096 11.288 16.288C11.0967 16.48 11.0007 16.7173 11 17C11 17.2833 11.096 17.521 11.288 17.713C11.48 17.905 11.7173 18.0007 12 18ZM11 15H13V10H11V15Z" fill="black"/>
</svg>